<svg width="46" height="47" viewBox="0 0 46 47" fill="none" xmlns="http://www.w3.org/2000/svg">
<g id="Group">
<path id="Vector" d="M32.7006 17.1448L22.6226 12.3349C21.5909 11.8429 20.3793 12.6778 20.7785 13.6055C21.8214 16.0315 23.0724 19.7282 23.0724 23.5008C23.0724 27.2734 21.8214 30.97 20.7785 33.3961C20.3793 34.3237 21.5909 35.1587 22.6226 34.6667L32.7006 29.8568L46.0002 23.4952L32.7006 17.1448ZM29.5296 24.1951L24.0619 23.4952L29.5296 22.6659L41.0525 23.4952L29.5296 24.1951Z" fill="white"/>
<path id="Vector_2" d="M21.417 21.4963C21.417 21.4963 21.3973 21.5047 21.386 21.5047L21.386 21.4935L3.09947 21.4963L3.09947 21.6087C3.02919 21.5385 2.95329 21.4963 2.86895 21.4963C2.47539 21.4963 2.15492 22.3846 2.1493 23.481L12.0193 23.703C10.4535 24.2175 5.24157 24.5548 2.25893 24.552C2.38543 25.1171 2.61033 25.4938 2.86614 25.4909C2.94485 25.4909 3.02357 25.446 3.09665 25.3785L3.09666 25.4909L21.386 25.4909L21.386 25.4797C21.386 25.4797 21.4057 25.4881 21.417 25.4881C21.8162 25.4881 22.1366 24.5942 22.1338 23.4894C22.1338 22.3874 21.8105 21.4907 21.417 21.4907L21.417 21.4963Z" fill="white"/>
</g>
</svg>
