<svg width="37" height="35" viewBox="0 0 37 35" fill="none" xmlns="http://www.w3.org/2000/svg">
<path id="Vector" d="M18.5 0C14.8411 0 11.2643 1.02636 8.22196 2.94928C5.17965 4.87221 2.80846 7.60533 1.40824 10.803C0.00801576 14.0007 -0.358346 17.5194 0.355481 20.9141C1.06931 24.3087 2.83126 27.4269 5.41853 29.8744C8.0058 32.3218 11.3022 33.9885 14.8908 34.6637C18.4795 35.339 22.1992 34.9924 25.5796 33.6679C28.9601 32.3433 31.8494 30.1003 33.8822 27.2225C35.915 24.3446 37 20.9612 37 17.5C36.9943 12.8604 35.0434 8.41228 31.5752 5.13155C28.107 1.85083 23.4048 0.00536242 18.5 0ZM24.9817 18.62L16.4432 24.0047C16.229 24.14 15.9798 24.2178 15.7225 24.2297C15.4651 24.2416 15.2092 24.1871 14.982 24.0721C14.7548 23.9571 14.5649 23.7859 14.4326 23.5767C14.3003 23.3676 14.2305 23.1283 14.2308 22.8846V12.1154C14.2305 11.8716 14.3003 11.6324 14.4326 11.4233C14.5649 11.2141 14.7548 11.0429 14.982 10.9279C15.2092 10.8129 15.4651 10.7584 15.7225 10.7703C15.9798 10.7822 16.229 10.86 16.4432 10.9953L24.9817 16.38C25.1766 16.5029 25.3364 16.6694 25.447 16.8648C25.5575 17.0602 25.6154 17.2784 25.6154 17.5C25.6154 17.7216 25.5575 17.9398 25.447 18.1352C25.3364 18.3306 25.1766 18.4971 24.9817 18.62Z" fill="#513D8E"/>
</svg>
