<?xml version="1.0" encoding="UTF-8"?>
<svg version="1.1" xmlns="http://www.w3.org/2000/svg" width="298" height="49">
<path d="M0 0 C2.92498319 0.51378571 2.92498319 0.51378571 6.0625 -0.6875 C12.15763989 -2.31287064 18.09879368 -1.87660519 23.75 1.0625 C27.53283863 3.84172838 29.1409254 6.11461948 30.5 10.5625 C30.94238599 14.45549668 30.8125 18.39444838 30.8125 22.3125 C23.5525 22.3125 16.2925 22.3125 8.8125 22.3125 C9.4725 23.3025 10.1325 24.2925 10.8125 25.3125 C13.17954913 25.71488845 13.17954913 25.71488845 15.8125 25.5625 C16.699375 25.54703125 17.58625 25.5315625 18.5 25.515625 C20.83769411 25.45291756 20.83769411 25.45291756 22.8125 24.3125 C24.81210012 24.272508 26.81297242 24.26903201 28.8125 24.3125 C28.8125 27.6125 28.8125 30.9125 28.8125 34.3125 C23.54199451 37.54667383 19.30297083 37.77134796 13.3125 37.6875 C12.48363281 37.69910156 11.65476563 37.71070313 10.80078125 37.72265625 C5.63271904 37.6980073 2.40866427 36.861282 -2.1875 34.3125 C-4.93608021 34.94465742 -4.93608021 34.94465742 -7.1875 36.3125 C-11.63713939 38.53731969 -17.35665071 37.8108279 -22.1875 37.3125 C-25.44979772 36.10095827 -26.01488499 35.26967042 -28.1875 32.3125 C-29.59896969 27.87412131 -29.50599411 24.38741762 -28.1875 19.9375 C-24.99962761 15.75341748 -21.51414038 14.65844361 -16.5078125 13.9140625 C-14.06779207 13.65830965 -11.63647831 13.45539813 -9.1875 13.3125 C-9.1875 12.6525 -9.1875 11.9925 -9.1875 11.3125 C-17.6025 11.8075 -17.6025 11.8075 -26.1875 12.3125 C-26.1875 8.6825 -26.1875 5.0525 -26.1875 1.3125 C-16.79571733 -1.29305726 -9.49439614 -2.04781093 0 0 Z M10.8125 9.3125 C9.3275 11.7875 9.3275 11.7875 7.8125 14.3125 C10.1225 14.3125 12.4325 14.3125 14.8125 14.3125 C14.54573796 12.32758358 14.54573796 12.32758358 13.8125 10.3125 C12.8225 9.9825 11.8325 9.6525 10.8125 9.3125 Z M-12.1875 22.3125 C-12.5175 23.9625 -12.8475 25.6125 -13.1875 27.3125 C-11.8675 27.6425 -10.5475 27.9725 -9.1875 28.3125 C-8.07913577 26.42933841 -8.07913577 26.42933841 -7.1875 24.3125 C-7.5175 23.6525 -7.8475 22.9925 -8.1875 22.3125 C-9.5075 22.3125 -10.8275 22.3125 -12.1875 22.3125 Z " fill="#119FD5" transform="translate(71.1875,11.6875)"/>
<path d="M0 0 C4.95 0 9.9 0 15 0 C16.81115956 1.81115956 16.38199448 4.61278227 16.5625 7.0625 C16.68818359 8.71958984 16.68818359 8.71958984 16.81640625 10.41015625 C16.87699219 11.26480469 16.93757813 12.11945312 17 13 C17.99 12.484375 18.98 11.96875 20 11.4375 C24.21279417 9.65876468 27.65461292 9.5544757 32 11 C36.24184698 13.43461416 38.57684777 16.335942 40 21 C40.77715749 29.57584253 41.16784319 37.73708525 36 45 C33.22879922 47.70337419 31.67771751 48.90211669 27.80859375 49.4609375 C26.69613281 49.43257812 25.58367187 49.40421875 24.4375 49.375 C23.32246094 49.36210938 22.20742187 49.34921875 21.05859375 49.3359375 C18.14139999 49.01553052 16.50931863 48.42251623 14 47 C13.34 47 12.68 47 12 47 C12 47.66 12 48.32 12 49 C8.04 49 4.08 49 0 49 C0 32.83 0 16.66 0 0 Z M17 23 C15.63467451 24.13701597 15.63467451 24.13701597 15.90234375 27.16015625 C15.91394531 28.44792969 15.92554688 29.73570313 15.9375 31.0625 C15.94652344 32.35285156 15.95554688 33.64320312 15.96484375 34.97265625 C15.97644531 35.97167969 15.98804688 36.97070312 16 38 C17.98 38 19.96 38 22 38 C23.30089831 35.39820337 23.16840078 33.4030812 23.1875 30.5 C23.20167969 29.5203125 23.21585938 28.540625 23.23046875 27.53125 C23.25680034 24.830082 23.25680034 24.830082 21 23 C19.68 23 18.36 23 17 23 Z " fill="#119FD5" transform="translate(136,0)"/>
<path d="M0 0 C4.95 0 9.9 0 15 0 C17.13164775 4.26329551 17.42833642 7.61201724 17.625 12.25 C17.66367188 12.99507812 17.70234375 13.74015625 17.7421875 14.5078125 C17.83605108 16.3381524 17.91909718 18.16904143 18 20 C18.42152344 19.43410156 18.84304687 18.86820313 19.27734375 18.28515625 C19.82519531 17.55167969 20.37304688 16.81820313 20.9375 16.0625 C21.48277344 15.33160156 22.02804688 14.60070312 22.58984375 13.84765625 C24 12 24 12 25 11 C27.35313555 10.92728259 29.70833668 10.91629132 32.0625 10.9375 C33.35285156 10.94652344 34.64320313 10.95554687 35.97265625 10.96484375 C36.97167969 10.97644531 37.97070312 10.98804688 39 11 C37.66886445 14.72322567 35.94783669 17.50805159 33.625 20.6875 C31.37068225 24.35262773 31.37068225 24.35262773 31.32421875 28.51953125 C32.37236228 31.15024723 33.60295776 33.53709447 35 36 C35.92374879 37.80890083 36.84060289 39.62134171 37.75 41.4375 C38.17796875 42.24058594 38.6059375 43.04367188 39.046875 43.87109375 C40 46 40 46 40 49 C28.7206187 50.20563458 28.7206187 50.20563458 24 49 C20.86269512 46.08751827 19.37805655 43.01933161 18 39 C17.67 42.3 17.34 45.6 17 49 C11.39 49 5.78 49 0 49 C0 32.83 0 16.66 0 0 Z " fill="#119FD5" transform="translate(223,0)"/>
<path d="M0 0 C2.8453321 3.60866249 2.95931392 6.23311897 2.79614258 10.6340332 C2.78906784 11.35942795 2.7819931 12.08482269 2.77470398 12.8321991 C2.74684539 15.13570899 2.68413324 17.43673446 2.62036133 19.73950195 C2.59526696 21.30652399 2.57245577 22.87358435 2.55200195 24.44067383 C2.50130729 28.27116293 2.40346897 32.09632239 2.30786133 35.92700195 C-2.97213867 35.92700195 -8.25213867 35.92700195 -13.69213867 35.92700195 C-13.69213867 27.67700195 -13.69213867 19.42700195 -13.69213867 10.92700195 C-15.34213867 10.92700195 -16.99213867 10.92700195 -18.69213867 10.92700195 C-19.02213867 19.17700195 -19.35213867 27.42700195 -19.69213867 35.92700195 C-24.97213867 35.92700195 -30.25213867 35.92700195 -35.69213867 35.92700195 C-35.69213867 23.38700195 -35.69213867 10.84700195 -35.69213867 -2.07299805 C-22.69213867 -2.07299805 -22.69213867 -2.07299805 -20.69213867 -1.07299805 C-20.69213867 -0.08299805 -20.69213867 0.90700195 -20.69213867 1.92700195 C-19.08338867 0.96793945 -19.08338867 0.96793945 -17.44213867 -0.01049805 C-11.44200257 -3.39457481 -5.9362745 -4.57104441 0 0 Z " fill="#129FD5" transform="translate(35.692138671875,13.072998046875)"/>
<path d="M0 0 C0 3.3 0 6.6 0 10 C-5.28 9.67 -10.56 9.34 -16 9 C-14.123125 9.4125 -12.24625 9.825 -10.3125 10.25 C-5.59613181 11.28656444 -2.34431924 12.41767264 1 16 C1.62890625 19.05859375 1.62890625 19.05859375 1.5625 22.4375 C1.56443359 24.10619141 1.56443359 24.10619141 1.56640625 25.80859375 C0.88292123 29.65967832 -0.21034932 31.28690921 -3 34 C-7.39103226 36.60325484 -12.04247421 36.29828759 -17 36.25 C-17.7940625 36.25773437 -18.588125 36.26546875 -19.40625 36.2734375 C-20.1796875 36.27085938 -20.953125 36.26828125 -21.75 36.265625 C-22.44609375 36.26336914 -23.1421875 36.26111328 -23.859375 36.25878906 C-26 36 -26 36 -31 34 C-31 30.37 -31 26.74 -31 23 C-30.030625 23.165 -29.06125 23.33 -28.0625 23.5 C-23.70512237 24.13396273 -19.39369296 24.0896672 -15 24 C-15.81984375 23.82984375 -16.6396875 23.6596875 -17.484375 23.484375 C-18.56203125 23.24203125 -19.6396875 22.9996875 -20.75 22.75 C-21.81734375 22.51796875 -22.8846875 22.2859375 -23.984375 22.046875 C-27.38728201 20.86555495 -28.88611907 19.90721392 -31 17 C-31.8090879 12.94340065 -31.6526206 9.07748427 -31 5 C-27.87673031 0.66212543 -24.50885523 -1.3268925 -19.4375 -2.6875 C-12.67737702 -3.30205663 -6.23398187 -2.7618907 0 0 Z " fill="#11A0D5" transform="translate(297,13)"/>
<path d="M0 0 C3.67090897 2.89808603 4.98721934 5.44248702 6 10 C6.59848552 16.3523463 6.2215359 21.33454031 3 27 C-1.08684268 31.83968212 -4.38950733 33.71117953 -10.671875 34.40625 C-18.16357525 34.68866251 -24.28264794 34.57476119 -30.36328125 29.65234375 C-34.57345211 25.40198033 -35.85734865 21.52017392 -36.1875 15.6875 C-35.86638136 9.37216681 -34.60088631 4.47981035 -30 0 C-20.00885723 -6.10569836 -10.02123175 -6.51844009 0 0 Z M-24 7 C-24.09981214 9.6773138 -24.13879875 12.32304175 -24.125 15 C-24.12886719 15.75023437 -24.13273438 16.50046875 -24.13671875 17.2734375 C-24.47675541 20.93606117 -24.47675541 20.93606117 -23 24 C-20.3226862 24.09981214 -17.67695825 24.13879875 -15 24.125 C-13.87464844 24.13080078 -13.87464844 24.13080078 -12.7265625 24.13671875 C-9.06393883 24.47675541 -9.06393883 24.47675541 -6 23 C-5.90018786 20.3226862 -5.86120125 17.67695825 -5.875 15 C-5.87113281 14.24976563 -5.86726563 13.49953125 -5.86328125 12.7265625 C-5.52324459 9.06393883 -5.52324459 9.06393883 -7 6 C-9.6773138 5.90018786 -12.32304175 5.86120125 -15 5.875 C-15.75023437 5.87113281 -16.50046875 5.86726563 -17.2734375 5.86328125 C-20.93606117 5.52324459 -20.93606117 5.52324459 -24 7 Z " fill="#119FD5" transform="translate(214,15)"/>
<path d="M0 0 C4.62 0 9.24 0 14 0 C14.99 0.99 15.98 1.98 17 3 C17.70125 2.505 18.4025 2.01 19.125 1.5 C22 0 22 0 28 0 C28 4.62 28 9.24 28 14 C24.37 14.33 20.74 14.66 17 15 C17 22.59 17 30.18 17 38 C11.39 38 5.78 38 0 38 C0 25.46 0 12.92 0 0 Z " fill="#119FD5" transform="translate(105,11)"/>
</svg>
