<svg width="18" height="18" viewBox="0 0 18 18" fill="none" xmlns="http://www.w3.org/2000/svg">
<path d="M2 11.7965V1H5.63142C6.47455 1 7.16375 1.15288 7.69902 1.45864C8.23778 1.76088 8.63661 2.17032 8.8955 2.68695C9.15438 3.20358 9.28383 3.77995 9.28383 4.41607C9.28383 5.05219 9.15438 5.63033 8.8955 6.15047C8.64011 6.67061 8.24478 7.08532 7.70951 7.39459C7.17425 7.70035 6.48854 7.85323 5.65241 7.85323H3.04954V6.69346H5.61043C6.18768 6.69346 6.65122 6.59329 7.00107 6.39297C7.35092 6.19264 7.60456 5.92203 7.76199 5.58112C7.92292 5.2367 8.00338 4.84835 8.00338 4.41607C8.00338 3.98379 7.92292 3.5972 7.76199 3.2563C7.60456 2.91539 7.34917 2.64829 6.99582 2.45499C6.64248 2.25818 6.17368 2.15978 5.58944 2.15978H3.30143V11.7965H2Z" fill="black"/>
<path d="M6.61799 17.3634V6.56693H10.3754C11.124 6.56693 11.7415 6.69697 12.2278 6.95704C12.7141 7.2136 13.0762 7.55977 13.3141 7.99557C13.552 8.42785 13.6709 8.90758 13.6709 9.43475C13.6709 9.89866 13.5887 10.2817 13.4243 10.584C13.2633 10.8862 13.0499 11.1252 12.7841 11.3009C12.5217 11.4767 12.2365 11.6067 11.9287 11.691V11.7965C12.2575 11.8176 12.5881 11.9335 12.9205 12.1444C13.2528 12.3553 13.531 12.6575 13.7549 13.0511C13.9788 13.4448 14.0907 13.9263 14.0907 14.4956C14.0907 15.0368 13.9683 15.5236 13.7234 15.9559C13.4785 16.3881 13.0919 16.7308 12.5636 16.9839C12.0354 17.2369 11.3479 17.3634 10.5013 17.3634H6.61799ZM7.91942 16.2036H10.5013C11.3514 16.2036 11.9549 16.0385 12.3118 15.7081C12.6721 15.3742 12.8523 14.9701 12.8523 14.4956C12.8523 14.1301 12.7596 13.7927 12.5741 13.4834C12.3887 13.1706 12.1246 12.9211 11.7817 12.7348C11.4389 12.5451 11.0331 12.4502 10.5643 12.4502H7.91942V16.2036ZM7.91942 11.3115H10.3334C10.7252 11.3115 11.0785 11.2342 11.3934 11.0795C11.7118 10.9249 11.9637 10.707 12.1491 10.4258C12.338 10.1447 12.4325 9.81431 12.4325 9.43475C12.4325 8.9603 12.268 8.55789 11.9392 8.22753C11.6103 7.89365 11.089 7.72671 10.3754 7.72671H7.91942V11.3115Z" fill="black"/>
<path d="M3.00009 11.7965V1H6.63151C7.47464 1 8.16384 1.15288 8.69911 1.45864C9.23787 1.76088 9.6367 2.17032 9.89558 2.68695C10.1545 3.20358 10.2839 3.77995 10.2839 4.41607C10.2839 5.05219 10.1545 5.63033 9.89558 6.15047C9.6402 6.67061 9.24487 7.08532 8.7096 7.39459C8.17433 7.70035 7.48863 7.85323 6.6525 7.85323H4.04963V6.69346H6.61052C7.18776 6.69346 7.65131 6.59329 8.00116 6.39297C8.35101 6.19264 8.60465 5.92203 8.76208 5.58112C8.92301 5.2367 9.00347 4.84835 9.00347 4.41607C9.00347 3.98379 8.92301 3.5972 8.76208 3.2563C8.60465 2.91539 8.34926 2.64829 7.99591 2.45499C7.64257 2.25818 7.17377 2.15978 6.58952 2.15978H4.30152V11.7965H3.00009Z" fill="white"/>
<path d="M7.61808 17.3634V6.56693H11.3754C12.1241 6.56693 12.7416 6.69697 13.2279 6.95704C13.7142 7.2136 14.0763 7.55977 14.3142 7.99557C14.5521 8.42785 14.671 8.90758 14.671 9.43475C14.671 9.89866 14.5888 10.2817 14.4244 10.584C14.2634 10.8862 14.05 11.1252 13.7841 11.3009C13.5218 11.4767 13.2366 11.6067 12.9288 11.691V11.7965C13.2576 11.8176 13.5882 11.9335 13.9206 12.1444C14.2529 12.3553 14.5311 12.6575 14.755 13.0511C14.9789 13.4448 15.0908 13.9263 15.0908 14.4956C15.0908 15.0368 14.9684 15.5236 14.7235 15.9559C14.4786 16.3881 14.092 16.7308 13.5637 16.9839C13.0355 17.2369 12.348 17.3634 11.5014 17.3634H7.61808ZM8.91951 16.2036H11.5014C12.3515 16.2036 12.955 16.0385 13.3118 15.7081C13.6722 15.3742 13.8524 14.9701 13.8524 14.4956C13.8524 14.1301 13.7597 13.7927 13.5742 13.4834C13.3888 13.1706 13.1247 12.9211 12.7818 12.7348C12.439 12.5451 12.0332 12.4502 11.5644 12.4502H8.91951V16.2036ZM8.91951 11.3115H11.3335C11.7253 11.3115 12.0786 11.2342 12.3935 11.0795C12.7119 10.9249 12.9637 10.707 13.1492 10.4258C13.3381 10.1447 13.4325 9.81431 13.4325 9.43475C13.4325 8.9603 13.2681 8.55789 12.9393 8.22753C12.6104 7.89365 12.0891 7.72671 11.3754 7.72671H8.91951V11.3115Z" fill="white"/>
</svg>
